<?xml version="1.0" encoding="utf-8"?>
<!-- Generator: Adobe Illustrator 16.0.0, SVG Export Plug-In . SVG Version: 6.00 Build 0)  -->
<!DOCTYPE svg PUBLIC "-//W3C//DTD SVG 1.1//EN" "http://www.w3.org/Graphics/SVG/1.1/DTD/svg11.dtd">
<svg version="1.1" id="Layer_3" xmlns="http://www.w3.org/2000/svg" xmlns:xlink="http://www.w3.org/1999/xlink" x="0px" y="0px"
	 width="300px" height="120px" viewBox="0 0 300 120" enable-background="new 0 0 300 120" xml:space="preserve">
<path fill="#EF4923" d="M69.662,98.33c0.114,0.185,0.223,0.335,0.336,0.52H54.092c-0.077-0.185-0.186-0.335-0.262-0.52
	c-5.402-10.95-8.382-23.321-8.382-36.396c0-13.301,3.128-25.857,8.681-37.033h15.907c-6.779,10.693-10.689,23.397-10.689,37.033
	C59.345,75.307,63.143,87.75,69.662,98.33z"/>
<path fill="#EF4923" d="M48.354,98.33c0.109,0.185,0.221,0.335,0.334,0.52h-15.91c-0.072-0.185-0.185-0.335-0.258-0.52
	c-5.403-10.95-8.382-23.321-8.382-36.396c0-13.301,3.129-25.857,8.681-37.033h15.906c-6.781,10.693-10.692,23.397-10.692,37.033
	C38.033,75.307,41.834,87.75,48.354,98.33z"/>
<path fill="#EF4923" d="M27.082,98.33c0.109,0.185,0.222,0.335,0.335,0.52H11.506c-0.072-0.185-0.185-0.335-0.258-0.52
	C5.845,87.38,2.865,75.009,2.865,61.934c0-13.301,3.129-25.857,8.681-37.033h15.907C20.671,35.593,16.76,48.298,16.76,61.934
	C16.76,75.307,20.562,87.75,27.082,98.33z"/>
<path fill="#EF4923" d="M255.418,61.934c0,13.075-2.982,25.446-8.383,36.396c-0.076,0.185-0.188,0.335-0.261,0.52h-15.906
	c0.109-0.185,0.222-0.335,0.334-0.52c6.521-10.58,10.318-23.023,10.318-36.396c0-13.636-3.911-26.34-10.692-37.033h15.909
	C252.29,36.077,255.418,48.632,255.418,61.934z"/>
<path fill="#EF4923" d="M276.691,61.934c0,13.075-2.98,25.446-8.383,36.396c-0.076,0.185-0.186,0.335-0.262,0.52h-15.906
	c0.108-0.185,0.222-0.335,0.335-0.52c6.52-10.58,10.317-23.023,10.317-36.396c0-13.636-3.911-26.34-10.692-37.033h15.909
	C273.563,36.077,276.691,48.632,276.691,61.934z"/>
<path fill="#EF4923" d="M298,61.934c0,13.075-2.979,25.446-8.383,36.396c-0.072,0.185-0.186,0.335-0.262,0.52h-15.906
	c0.113-0.185,0.222-0.335,0.335-0.52c6.52-10.58,10.317-23.023,10.317-36.396c0-13.636-3.911-26.34-10.688-37.033h15.906
	C294.871,36.077,298,48.632,298,61.934z"/>
<g>
	<path fill="#EF4923" d="M147.379,72.735c-0.524-1.899-1.267-3.612-2.274-5.142c-2.048-3.129-4.544-5.625-7.375-7.523
		c-2.87-1.863-5.737-3.242-8.645-4.1c-2.906-0.855-5.18-1.416-6.781-1.751c-5.475-1.378-9.911-2.533-13.302-3.427
		c-3.387-0.896-6.032-1.788-7.934-2.719c-1.936-0.896-3.202-1.863-3.875-2.907c-0.669-1.081-0.968-2.458-0.968-4.172
		c0-1.9,0.412-3.428,1.23-4.657c0.782-1.228,1.862-2.234,3.092-3.054c1.267-0.819,2.682-1.379,4.246-1.714
		c1.528-0.334,3.093-0.483,4.657-0.483c2.347,0,4.547,0.186,6.519,0.595c2.012,0.411,3.802,1.118,5.367,2.086
		c1.528,0.97,2.757,2.311,3.689,4.024c0.968,1.713,1.528,3.913,1.673,6.521h18.592c0-5.067-0.932-9.389-2.867-12.927
		c-1.343-2.459-2.98-4.657-4.992-6.483H85.274c-1.862,1.713-3.467,3.726-4.77,5.998c-1.939,3.315-2.907,7.19-2.907,11.699
		c0,3.984,0.746,7.376,2.274,10.208c1.528,2.831,3.5,5.14,5.923,7.04c2.458,1.862,5.252,3.391,8.346,4.585
		c3.092,1.188,6.294,2.196,9.535,3.016c3.206,0.895,6.334,1.678,9.426,2.423c3.129,0.745,5.887,1.601,8.346,2.568
		c2.42,1.009,4.396,2.198,5.923,3.689c1.488,1.451,2.271,3.391,2.271,5.738c0,2.233-0.558,4.023-1.714,5.438
		c-1.153,1.451-2.569,2.571-4.282,3.391c-1.714,0.819-3.541,1.38-5.516,1.637c-1.972,0.3-3.798,0.447-5.512,0.447
		c-2.535,0-4.992-0.299-7.342-0.93c-2.383-0.598-4.431-1.566-6.181-2.796c-1.755-1.267-3.169-2.942-4.21-4.954
		c-1.08-2.049-1.604-4.545-1.604-7.488H74.654c-0.073,5.403,0.932,10.061,2.943,13.936c1.565,3.015,3.541,5.624,5.963,7.785h56.886
		c2.347-2.125,4.174-4.657,5.476-7.523c0.633-1.419,1.121-2.87,1.456-4.36c0.596-2.16,0.855-4.434,0.855-6.78
		C148.234,77.134,147.936,74.823,147.379,72.735z"/>
	<path fill="#EF4923" d="M201.956,24.9v26.861h-35.353V24.9h-19.225v73.43h19.225V67.929h35.353V98.33h19.26V24.9H201.956z"/>
</g>
<path fill="#EF4923" d="M27.082,98.33c0.109,0.185,0.222,0.335,0.335,0.52H11.506c-0.072-0.185-0.185-0.335-0.258-0.52H27.082z"/>
<path fill="#EF4923" d="M48.354,98.33c0.109,0.185,0.221,0.335,0.334,0.52h-15.91c-0.072-0.185-0.185-0.335-0.258-0.52H48.354z"/>
<path fill="#EF4923" d="M69.662,98.33c0.114,0.185,0.223,0.335,0.336,0.52H54.092c-0.077-0.185-0.186-0.335-0.262-0.52H69.662z"/>
<path fill="#EF4923" d="M231.202,98.33h15.833c-0.076,0.185-0.188,0.335-0.261,0.52h-15.906
	C230.978,98.665,231.09,98.515,231.202,98.33z"/>
<path fill="#EF4923" d="M252.476,98.33h15.833c-0.076,0.185-0.186,0.335-0.262,0.52h-15.906
	C252.249,98.665,252.362,98.515,252.476,98.33z"/>
<path fill="#EF4923" d="M289.617,98.33c-0.072,0.185-0.186,0.335-0.262,0.52h-15.906c0.113-0.185,0.222-0.335,0.335-0.52H289.617z"
	/>
</svg>
