<?xml version="1.0" encoding="utf-8"?>
<!-- Generator: Adobe Illustrator 16.0.0, SVG Export Plug-In . SVG Version: 6.00 Build 0)  -->
<!DOCTYPE svg PUBLIC "-//W3C//DTD SVG 1.1//EN" "http://www.w3.org/Graphics/SVG/1.1/DTD/svg11.dtd">
<svg version="1.1" id="Layer_2" xmlns="http://www.w3.org/2000/svg" xmlns:xlink="http://www.w3.org/1999/xlink" x="0px" y="0px"
	 width="300px" height="120px" viewBox="0 0 300 120" enable-background="new 0 0 300 120" xml:space="preserve">
<g>
	<path fill="#FF4400" d="M18.206,59.989c0,16.836,4.843,32.479,13.196,45.72H11.701C4.83,91.959,1,76.41,1,59.989
		c0-16.472,3.875-32.02,10.75-45.86h19.698C23.049,27.371,18.206,43.103,18.206,59.989z"/>
	<path fill="#FF4400" d="M44.594,59.989c0,17.529,6.551,33.583,17.44,45.72H40.629c-8.354-13.24-13.196-28.884-13.196-45.72
		c0-16.886,4.843-32.619,13.241-45.86h21.5C51.239,26.311,44.594,42.364,44.594,59.989z"/>
	<path fill="#FF4400" d="M282.377,59.989c0,16.836-4.844,32.479-13.196,45.72h19.702c6.871-13.75,10.7-29.299,10.7-45.72
		c0-16.472-3.875-32.02-10.75-45.86h-19.697C277.533,27.371,282.377,43.103,282.377,59.989z"/>
	<path fill="#FF4400" d="M255.988,59.989c0,17.529-6.55,33.583-17.439,45.72h21.406c8.352-13.24,13.194-28.884,13.194-45.72
		c0-16.886-4.843-32.619-13.24-45.86h-21.5C249.343,26.311,255.988,42.364,255.988,59.989z"/>
	<path fill="#FF4400" d="M229.169,14.143h-47.702v0.137c20.156,1.522,36.628,16.054,41.101,35.247h-49.684V14.143H71.387
		c-1.433,1.612-2.771,3.228-4.06,4.98c-2.586,3.507-4.893,7.245-6.785,11.211c-4.334,8.95-6.736,19.009-6.736,29.666
		c0,3.503,0.279,6.964,0.788,10.333h76.212v14.625H84.12H60.038h-1.522c0.645,1.663,1.338,3.324,2.122,4.892
		c1.752,3.736,3.875,7.245,6.321,10.517c1.337,1.847,2.767,3.649,4.289,5.352h9.552h38.291h11.718
		c11.489,0,20.762-9.316,20.762-20.806V70.333c0-11.119-8.719-20.206-19.748-20.761H77.983c0.648-2.953,1.617-5.812,2.816-8.487
		c1.013-2.122,2.122-4.2,3.414-6.137h67.866v70.77h20.805V70.333h49.734c-4.43,19.192-20.946,33.817-41.151,35.385h47.838
		C240.193,93.586,246.744,77.532,246.744,60C246.744,42.375,240.103,26.321,229.169,14.143z"/>
</g>
<path fill="#F05A28" d="M60.051,84.948c0,11.483,9.272,20.761,20.761,20.761"/>
</svg>
